<svg xmlns="http://www.w3.org/2000/svg" width="58.104" height="41.835" viewBox="0 0 58.104 41.835">
  <g id="_2742767_cart_buy_ecommerce_shop_shopping_icon_1_" data-name="2742767_cart_buy_ecommerce_shop_shopping_icon (1)" transform="translate(-145.448 277.733)">
    <g id="Grupo_21673" data-name="Grupo 21673" transform="translate(145.448 -277.733)">
      <path id="_1608412_cart_shopping_icon" data-name="1608412_cart_shopping_icon" d="M86.348,294.032a3.412,3.412,0,0,1-1.327,2.674,4.938,4.938,0,0,1-6.285,0,3.358,3.358,0,0,1,0-5.348,4.938,4.938,0,0,1,6.285,0A3.412,3.412,0,0,1,86.348,294.032Zm31.287,0a3.412,3.412,0,0,1-1.327,2.674,4.938,4.938,0,0,1-6.285,0,3.358,3.358,0,0,1,0-5.348,4.938,4.938,0,0,1,6.285,0A3.412,3.412,0,0,1,117.634,294.032ZM122.1,261.7v15.213a1.7,1.7,0,0,1-.576,1.263,2.348,2.348,0,0,1-1.414.639l-36.455,3.625a15.538,15.538,0,0,1,.454,2.08,5.212,5.212,0,0,1-.838,1.9H115.4a2.347,2.347,0,0,1,1.571.565,1.679,1.679,0,0,1,0,2.674,2.347,2.347,0,0,1-1.571.565H79.643a2.347,2.347,0,0,1-1.571-.565,1.706,1.706,0,0,1-.663-1.337,2.5,2.5,0,0,1,.279-.936,10.571,10.571,0,0,1,.559-1.07q.279-.461.751-1.188t.541-.877L73.358,259.8H66.235a2.347,2.347,0,0,1-1.571-.565,1.679,1.679,0,0,1,0-2.674A2.347,2.347,0,0,1,66.235,256h8.939a2.436,2.436,0,0,1,1,.193,2.009,2.009,0,0,1,.681.461,2.788,2.788,0,0,1,.454.728,4.131,4.131,0,0,1,.279.773q.07.312.192.876t.157.773h41.937a2.347,2.347,0,0,1,1.571.565A1.706,1.706,0,0,1,122.1,261.7Z" transform="translate(-64 -256)" fill="#fff"/>
    </g>
  </g>
</svg>
